<svg width="16" height="17" viewBox="0 0 16 17" fill="none" xmlns="http://www.w3.org/2000/svg">
<path d="M11.3333 6.50122C12.7833 6.50929 13.5685 6.57359 14.0808 7.08585C14.6666 7.67164 14.6666 8.61444 14.6666 10.5001V11.1667C14.6666 13.0523 14.6666 13.9952 14.0808 14.5809C13.495 15.1667 12.5522 15.1667 10.6666 15.1667H5.33325C3.44763 15.1667 2.50482 15.1667 1.91904 14.5809C1.33325 13.9952 1.33325 13.0523 1.33325 11.1667L1.33325 10.5001C1.33325 8.61444 1.33325 7.67163 1.91904 7.08585C2.43129 6.57359 3.21657 6.50929 4.66659 6.50122" stroke="#041E42" stroke-width="1.1" stroke-linecap="round"/>
<path d="M8 1.83325L8 10.4999M8 10.4999L6 8.16659M8 10.4999L10 8.16659" stroke="#041E42" stroke-width="1.1" stroke-linecap="round" stroke-linejoin="round"/>
</svg>
