<svg width="24" height="25" viewBox="0 0 24 25" fill="none" xmlns="http://www.w3.org/2000/svg">
<g id="Bold / Map &#38; Location / Point On Map">
<path id="Vector" d="M21 17.3289V11.6622C21 10.6186 21 10.0969 20.7169 9.70403C20.4881 9.3867 20.1212 9.21803 19.4667 8.99097C19.3328 10.5972 18.8009 12.2375 17.9655 13.6731C16.9928 15.3447 15.5484 16.8393 13.697 17.6469C12.618 18.1176 11.382 18.1176 10.303 17.6469C8.45164 16.8393 7.00718 15.3447 6.03449 13.6731C5.40086 12.5842 4.9418 11.3775 4.69862 10.1573C4.31607 10.1009 4.0225 10.1298 3.76917 10.2712C3.66809 10.3276 3.57388 10.3955 3.48841 10.4735C3 10.9196 3 11.7491 3 13.408V18.3377C3 19.3813 3 19.903 3.28314 20.2959C3.56627 20.6887 4.06129 20.8537 5.05132 21.1837L5.43488 21.3116L5.43489 21.3116C7.01186 21.8372 7.80035 22.1001 8.60688 22.1016C8.8498 22.1021 9.09242 22.0848 9.33284 22.05C10.131 21.9344 10.8809 21.5595 12.3806 20.8096C13.5299 20.235 14.1046 19.9477 14.715 19.8144C14.9292 19.7676 15.1463 19.7349 15.3648 19.7166C15.9875 19.6645 16.6157 19.7692 17.8721 19.9786C19.1455 20.1909 19.7821 20.297 20.247 20.03C20.4048 19.9394 20.5449 19.8207 20.6603 19.6799C21 19.2653 21 18.6198 21 17.3289Z" fill="#4B384D"/>
<path id="Vector_2" fill-rule="evenodd" clip-rule="evenodd" d="M12 2.5C8.68629 2.5 6 5.05211 6 8.20031C6 11.3238 7.91499 14.9687 10.9028 16.2721C11.5993 16.576 12.4007 16.576 13.0972 16.2721C16.085 14.9687 18 11.3238 18 8.20031C18 5.05211 15.3137 2.5 12 2.5ZM12 10.5C13.1046 10.5 14 9.60457 14 8.5C14 7.39543 13.1046 6.5 12 6.5C10.8954 6.5 10 7.39543 10 8.5C10 9.60457 10.8954 10.5 12 10.5Z" fill="#4B384D"/>
</g>
</svg>
