<svg width="24" height="25" viewBox="0 0 24 25" fill="none" xmlns="http://www.w3.org/2000/svg">
<g id="Bold / Like / Medal Ribbon Star">
<path id="Vector" fill-rule="evenodd" clip-rule="evenodd" d="M12 16.5C15.866 16.5 19 13.366 19 9.5C19 5.63401 15.866 2.5 12 2.5C8.13401 2.5 5 5.63401 5 9.5C5 13.366 8.13401 16.5 12 16.5ZM12 6.5C11.7159 6.5 11.5259 6.84084 11.1459 7.52251L11.0476 7.69887C10.9397 7.89258 10.8857 7.98944 10.8015 8.05334C10.7173 8.11725 10.6125 8.14097 10.4028 8.18841L10.2119 8.23161C9.47396 8.39857 9.10501 8.48205 9.01723 8.76432C8.92945 9.04659 9.18097 9.34072 9.68403 9.92898L9.81418 10.0812C9.95713 10.2483 10.0286 10.3319 10.0608 10.4353C10.0929 10.5387 10.0821 10.6502 10.0605 10.8733L10.0408 11.0763C9.96476 11.8612 9.92674 12.2536 10.1565 12.4281C10.3864 12.6025 10.7318 12.4435 11.4227 12.1254L11.6014 12.0431C11.7978 11.9527 11.8959 11.9075 12 11.9075C12.1041 11.9075 12.2022 11.9527 12.3986 12.0431L12.5773 12.1254C13.2682 12.4435 13.6136 12.6025 13.8435 12.4281C14.0733 12.2536 14.0352 11.8612 13.9592 11.0763L13.9395 10.8733C13.9179 10.6502 13.9071 10.5387 13.9392 10.4353C13.9714 10.3319 14.0429 10.2483 14.1858 10.0812L14.316 9.92898C14.819 9.34072 15.0706 9.04659 14.9828 8.76432C14.895 8.48205 14.526 8.39857 13.7881 8.23161L13.5972 8.18841C13.3875 8.14097 13.2827 8.11725 13.1985 8.05334C13.1143 7.98944 13.0603 7.89258 12.9524 7.69887L12.8541 7.52251C12.4741 6.84084 12.2841 6.5 12 6.5Z" fill="#4B384D"/>
<path id="Vector_2" d="M7.09301 16.4414L6.71424 17.823C6.0859 20.1148 5.77173 21.2607 6.19097 21.8881C6.3379 22.1079 6.535 22.2844 6.76372 22.4008C7.41634 22.7331 8.424 22.2081 10.4393 21.158C11.1099 20.8086 11.4452 20.6339 11.8014 20.5959C11.9335 20.5818 12.0665 20.5818 12.1986 20.5959C12.5548 20.6339 12.8901 20.8086 13.5607 21.158C15.576 22.2081 16.5837 22.7331 17.2363 22.4008C17.465 22.2844 17.6621 22.1079 17.809 21.8881C18.2283 21.2607 17.9141 20.1148 17.2858 17.823L16.907 16.4414C15.5208 17.4231 13.8278 18 12 18C10.1722 18 8.47915 17.4231 7.09301 16.4414Z" fill="#4B384D"/>
</g>
</svg>
