<svg width="24" height="25" viewBox="0 0 24 25" fill="none" xmlns="http://www.w3.org/2000/svg">
<g id="Bold / Design, Tools / Ruler Pen">
<path id="Vector" d="M12.5858 21.9142C13.1716 22.5 14.1144 22.5 16 22.5H18C19.8856 22.5 20.8284 22.5 21.4142 21.9142C22 21.3284 22 20.3856 22 18.5V6.5C22 4.61439 22 3.67157 21.4142 3.08579C20.8284 2.5 19.8856 2.5 18 2.5H16C14.1144 2.5 13.1716 2.5 12.5858 3.08579C12.0834 3.58814 12.0119 4.35306 12.0017 5.75L14 5.75C14.4142 5.75 14.75 6.08579 14.75 6.5C14.75 6.91421 14.4142 7.25 14 7.25H12V8.75H15C15.4142 8.75 15.75 9.08578 15.75 9.5C15.75 9.91421 15.4142 10.25 15 10.25H12V11.75H14C14.4142 11.75 14.75 12.0858 14.75 12.5C14.75 12.9142 14.4142 13.25 14 13.25H12V14.75L15 14.75C15.4142 14.75 15.75 15.0858 15.75 15.5C15.75 15.9142 15.4142 16.25 15 16.25L12 16.25V17.75H14C14.4142 17.75 14.75 18.0858 14.75 18.5C14.75 18.9142 14.4142 19.25 14 19.25H12.0017C12.0119 20.6469 12.0834 21.4119 12.5858 21.9142Z" fill="#4B384D"/>
<g id="Vector_2">
<path d="M8 15.6935L8 7.71416C7.23101 8.03116 6.21665 8.30306 5.00018 8.30306C3.78352 8.30306 2.76904 8.03107 2 7.71401L2 15.6935C2 16.3161 2 16.6275 2.03777 16.933C2.08232 17.2934 2.166 17.6479 2.28733 17.9902C2.39019 18.2804 2.52943 18.5589 2.8079 19.1158L4.27639 22.0528C4.41343 22.3269 4.69357 22.5 5 22.5C5.30643 22.5 5.58657 22.3269 5.72361 22.0528L7.1921 19.1158C7.47057 18.5589 7.60981 18.2804 7.71267 17.9902C7.834 17.6479 7.91768 17.2934 7.96223 16.933C8 16.6275 8 16.3161 8 15.6935Z" fill="#4B384D"/>
<path d="M8 5.5C8 3.84315 6.65685 2.5 5 2.5C3.34315 2.5 2 3.84315 2 5.5L2 6.45702C2.02634 6.47025 2.0532 6.48352 2.08057 6.49679C2.76149 6.82693 3.75513 7.15872 5.00018 7.15872C6.24523 7.15872 7.23887 6.82693 7.9198 6.49679C7.94704 6.48358 7.97378 6.47037 8 6.4572V5.5Z" fill="#4B384D"/>
</g>
</g>
</svg>
