<svg width="24" height="25" viewBox="0 0 24 25" fill="none" xmlns="http://www.w3.org/2000/svg">
<g id="Bold / Money / Tag">
<path id="Vector" fill-rule="evenodd" clip-rule="evenodd" d="M2.12264 13.316C2.41018 14.3186 3.18295 15.0914 4.72848 16.6369L6.55812 18.4665C9.24711 21.1555 10.5916 22.5 12.2623 22.5C13.933 22.5 15.2775 21.1555 17.9665 18.4665C20.6555 15.7775 22 14.433 22 12.7623C22 11.0916 20.6555 9.74711 17.9665 7.05812L16.1369 5.22848C14.5914 3.68295 13.8186 2.91018 12.816 2.62264C11.8134 2.33509 10.7485 2.58083 8.61875 3.07231L7.39057 3.35574C5.5988 3.76922 4.70292 3.97597 4.08944 4.58944C3.47597 5.20292 3.26922 6.09881 2.85574 7.89057L2.57231 9.11875C2.08083 11.2485 1.83509 12.3134 2.12264 13.316ZM10.1234 7.77098C10.911 8.55856 10.911 9.83549 10.1234 10.6231C9.33581 11.4107 8.05888 11.4107 7.27129 10.6231C6.48371 9.83549 6.48371 8.55856 7.27129 7.77098C8.05888 6.98339 9.33581 6.98339 10.1234 7.77098ZM19.0511 12.5511L12.0721 19.5303C11.7792 19.8232 11.3043 19.8232 11.0114 19.5303C10.7185 19.2375 10.7185 18.7626 11.0114 18.4697L17.9904 11.4904C18.2833 11.1975 18.7582 11.1975 19.0511 11.4904C19.344 11.7833 19.344 12.2582 19.0511 12.5511Z" fill="#4B384D"/>
</g>
</svg>
