<svg width="24" height="24" viewBox="0 0 24 24" fill="none" xmlns="http://www.w3.org/2000/svg">
<path fill-rule="evenodd" clip-rule="evenodd" d="M3.75 3C3.19772 3 2.75 3.44772 2.75 4V20C2.75 20.5523 3.19772 21 3.75 21H11.75V3H3.75ZM7.85 7.9897C7.70836 7.80084 7.48607 7.6897 7.25 7.6897C7.01393 7.6897 6.79164 7.80084 6.65 7.9897L5.15 9.9897C4.90147 10.3211 4.96863 10.7912 5.3 11.0397C5.63137 11.2882 6.10147 11.2211 6.35 10.8897L7.25 9.6897L8.15 10.8897C8.39853 11.2211 8.86863 11.2882 9.2 11.0397C9.53137 10.7912 9.59853 10.3211 9.35 9.9897L7.85 7.9897Z" fill="#4B384D"/>
<path fill-rule="evenodd" clip-rule="evenodd" d="M20.25 3H12.25V21H20.25C20.8023 21 21.25 20.5523 21.25 20V4C21.25 3.44772 20.8023 3 20.25 3ZM16.15 15.8897C16.2916 16.0786 16.5139 16.1897 16.75 16.1897C16.9861 16.1897 17.2084 16.0786 17.35 15.8897L18.85 13.8897C19.0985 13.5583 19.0314 13.0882 18.7 12.8397C18.3686 12.5912 17.8985 12.6583 17.65 12.9897L16.75 14.1897L15.85 12.9897C15.6015 12.6583 15.1314 12.5912 14.8 12.8397C14.4686 13.0882 14.4015 13.5583 14.65 13.8897L16.15 15.8897Z" fill="#4B384D"/>
</svg>
