<svg width="15" height="20" viewBox="0 0 15 20" fill="none" xmlns="http://www.w3.org/2000/svg">
<path fill-rule="evenodd" clip-rule="evenodd" d="M7.5 0C3.35786 0 0 3.43595 0 7.67442C0 9.94678 0.966025 11.9892 2.49859 13.3934C3.0094 13.8614 3.38782 14.2082 3.65601 14.4598C3.7901 14.5855 3.89262 14.6838 3.9683 14.7592C4.00601 14.7968 4.03486 14.8266 4.05635 14.8496C4.06699 14.861 4.07499 14.8699 4.0808 14.8766C4.08649 14.8831 4.0892 14.8864 4.0892 14.8864C4.32571 15.1851 4.3769 15.2622 4.40739 15.332C4.43787 15.4018 4.45982 15.4922 4.51949 15.8717C4.54305 16.0216 4.54545 16.2782 4.54545 16.9767L4.54545 17.0067C4.54544 17.4158 4.54543 17.7687 4.57107 18.0583C4.5982 18.3645 4.65825 18.6677 4.81949 18.9535C4.99902 19.2717 5.25723 19.5359 5.56818 19.7196C5.84747 19.8846 6.14379 19.946 6.44305 19.9738C6.72604 20 7.07088 20 7.47069 20H7.52932C7.92912 20 8.27396 20 8.55696 19.9738C8.85621 19.946 9.15253 19.8846 9.43182 19.7196C9.74277 19.5359 10.001 19.2717 10.1805 18.9535C10.3418 18.6677 10.4018 18.3645 10.4289 18.0583C10.4546 17.7687 10.4546 17.4158 10.4545 17.0067V16.9767C10.4545 16.2782 10.457 16.0216 10.4805 15.8717C10.5402 15.4922 10.5621 15.4018 10.5926 15.332C10.6231 15.2622 10.6743 15.1851 10.9108 14.8864C10.9108 14.8864 10.9133 14.8834 10.9192 14.8766C10.925 14.8699 10.933 14.861 10.9436 14.8496C10.9651 14.8266 10.994 14.7968 11.0317 14.7592C11.1074 14.6838 11.2099 14.5855 11.344 14.4598C11.6122 14.2082 11.9906 13.8614 12.5014 13.3934C14.034 11.9892 15 9.94678 15 7.67442C15 3.43595 11.6421 0 7.5 0ZM9.08506 17.6744H5.91494C5.91791 17.7714 5.92239 17.8561 5.92914 17.9323C5.94769 18.1418 5.97899 18.2178 6.00044 18.2558C6.06028 18.3619 6.14635 18.4499 6.25 18.5112C6.28715 18.5331 6.36146 18.5651 6.56613 18.5841C6.78018 18.604 7.06263 18.6047 7.5 18.6047C7.93737 18.6047 8.21982 18.604 8.43387 18.5841C8.63855 18.5651 8.71285 18.5331 8.75 18.5112C8.85365 18.4499 8.93972 18.3619 8.99956 18.2558C9.02101 18.2178 9.05231 18.1418 9.07086 17.9323C9.07761 17.8561 9.08209 17.7714 9.08506 17.6744ZM8.61046 6.17647C8.91688 6.40042 8.98785 6.83616 8.76898 7.1497L7.59101 8.83721H8.99338C9.24878 8.83721 9.48277 8.98327 9.59963 9.21564C9.7165 9.44802 9.69665 9.72774 9.5482 9.9404L7.60015 12.7311C7.38128 13.0446 6.95545 13.1173 6.64903 12.8933C6.34261 12.6693 6.27164 12.2336 6.49051 11.9201L7.66848 10.2326H6.26611C6.01071 10.2326 5.77673 10.0865 5.65986 9.85413C5.54299 9.62175 5.56284 9.34203 5.71129 9.12937L7.65934 6.33867C7.87821 6.02513 8.30404 5.95251 8.61046 6.17647Z" fill="#4B384D"/>
</svg>
