<svg width="24" height="24" viewBox="0 0 24 24" fill="none" xmlns="http://www.w3.org/2000/svg">
<path d="M22.0665 21.31C22.0665 20.3529 20.3203 17.6779 20.3203 17.6779C20.3203 17.6779 18.5477 20.3529 18.5477 21.31C18.5477 22.2652 19.3358 23.04 20.3074 23.04C21.2789 23.04 22.0665 22.2652 22.0665 21.31ZM9.44015 6.32204H5.92127V2.85308H6.88079V0.959961H0.480469V2.85308H1.44047V8.21468C1.44047 9.6086 2.58671 10.738 4.00031 10.738H9.44015V11.6846H11.3606V5.37644H9.44015V6.32204ZM22.5595 14.2075V8.84588C22.5595 7.45244 21.4137 6.32252 20.0016 6.32252H14.5608V5.37692H12.6403V11.6856H14.5608V10.7385H18.0801V14.2075H17.1216V16.1006H23.5205V14.2075H22.5595Z" fill="#4B384D"/>
</svg>
