<svg width="12" height="20" viewBox="0 0 12 20" fill="none" xmlns="http://www.w3.org/2000/svg">
<path fill-rule="evenodd" clip-rule="evenodd" d="M0.70725 0.408696C-1.19209e-07 1.03569 0 2.18259 0 4.4764V15.5236C0 17.8174 -1.19209e-07 18.9643 0.70725 19.5913C1.4145 20.2183 2.49553 20.0297 4.6576 19.6526L6.98639 19.2465C9.38088 18.8288 10.5781 18.62 11.2891 17.7417C12 16.8635 12 15.5933 12 13.0529V6.94711C12 4.40671 12 3.13652 11.2891 2.25826C10.5781 1.37999 9.38088 1.17118 6.98639 0.753537L4.6576 0.347355C2.49553 -0.0297448 1.4145 -0.218295 0.70725 0.408696ZM3 8.16862C3.41421 8.16862 3.75 8.52002 3.75 8.9535V11.0465C3.75 11.48 3.41421 11.8314 3 11.8314C2.58579 11.8314 2.25 11.48 2.25 11.0465V8.9535C2.25 8.52002 2.58579 8.16862 3 8.16862Z" fill="#4B384D"/>
</svg>
